<svg version="1.1" id="Layer_1" xmlns="http://www.w3.org/2000/svg" xmlns:xlink="http://www.w3.org/1999/xlink" x="0px" y="0px"
	 width="100%" viewBox="0 0 576 680" enable-background="new 0 0 576 680" xml:space="preserve">
<path fill="#EFF3F8" opacity="1.000000" stroke="none" 
	d="
M299.000000,681.000000 
	C199.333344,681.000000 100.166702,681.000000 1.000040,681.000000 
	C1.000027,454.333405 1.000027,227.666779 1.000013,1.000131 
	C192.999893,1.000087 384.999786,1.000087 576.999756,1.000044 
	C576.999878,227.666519 576.999878,454.333038 576.999939,680.999756 
	C484.500000,681.000000 392.000000,681.000000 299.000000,681.000000 
M225.847229,512.500000 
	C225.847229,564.604248 225.847229,616.708557 225.847229,669.385681 
	C227.928253,668.794617 229.350204,668.462524 230.723770,667.989929 
	C254.471191,659.819214 278.264526,651.778137 301.943695,643.413940 
	C341.411194,629.472839 368.237885,591.463501 368.252014,549.671875 
	C368.282196,460.351196 368.261230,371.030518 368.261230,281.709839 
	C368.261230,279.930542 368.261230,278.151276 368.261230,275.711304 
	C355.526917,275.711304 343.360474,275.711304 330.645264,275.711304 
	C331.579956,273.255035 332.193604,271.560028 332.865723,269.888458 
	C344.105682,241.935486 355.390991,214.000595 366.534637,186.009293 
	C367.550049,183.458679 368.128510,180.551178 368.133087,177.808105 
	C368.224487,123.315971 368.201233,68.823647 368.201202,14.331369 
	C368.201202,12.568991 368.201202,10.806612 368.201202,8.530184 
	C366.169373,9.021264 364.878571,9.225590 363.661041,9.643402 
	C338.801239,18.174417 313.849579,26.451063 289.120544,35.346436 
	C253.030899,48.328358 225.898331,87.290031 225.865555,125.714134 
	C225.802887,199.203674 225.830338,272.693329 225.913345,346.182831 
	C225.916458,348.929382 226.466599,351.844330 227.481949,354.394012 
	C235.672150,374.960602 244.044510,395.454590 252.340759,415.979004 
	C255.747574,424.407257 259.104126,432.855835 262.791992,442.065460 
	C250.014191,442.065460 238.121719,442.065460 225.847137,442.065460 
	C225.847137,465.572021 225.847137,488.536011 225.847229,512.500000 
M432.797882,269.756165 
	C433.512482,271.679504 434.227112,273.602844 435.193634,276.204132 
	C422.075409,276.204132 409.829468,276.204132 397.663055,276.204132 
	C397.663055,364.685516 397.663055,452.704773 397.663055,541.247314 
	C422.311340,532.742126 446.491913,524.472534 470.621185,516.055847 
	C513.743469,501.014038 539.997803,464.008331 540.000183,418.417877 
	C540.003601,351.420410 540.028992,284.422913 539.950439,217.425522 
	C539.943848,211.781815 539.740601,206.046387 538.750793,200.510559 
	C531.903076,162.214050 510.721161,135.164291 474.203827,121.277054 
	C450.919220,112.422134 427.116211,104.930244 403.543396,96.833733 
	C401.602386,96.167061 399.644196,95.550529 397.238068,94.761124 
	C397.238068,122.783058 397.169434,149.939896 397.325073,177.095428 
	C397.344482,180.482895 398.029297,184.072876 399.289459,187.214539 
	C410.248383,214.535233 421.409149,241.774933 432.797882,269.756165 
M69.584686,475.880035 
	C82.265015,494.744568 99.207329,508.068542 120.783714,515.447876 
	C140.456177,522.176086 160.084625,529.032898 179.750763,535.779724 
	C184.574066,537.434448 189.468765,538.880981 194.815292,540.576965 
	C194.815292,507.284088 194.815292,474.769501 194.815292,441.777222 
	C182.459991,441.777222 170.538437,441.777222 158.128632,441.777222 
	C158.732697,439.826080 159.062073,438.394562 159.608597,437.051453 
	C170.085312,411.304199 180.676590,385.602997 191.005356,359.796692 
	C192.949265,354.939850 195.065125,349.675964 195.079971,344.593994 
	C195.317535,263.278442 195.227951,181.961929 195.200043,100.645630 
	C195.199448,98.909805 195.047226,97.174026 194.945816,95.013916 
	C192.723709,95.692650 191.145615,96.125465 189.600281,96.654083 
	C166.618439,104.515572 143.623108,112.338135 120.666328,120.272224 
	C79.705635,134.428650 52.957142,172.101395 52.952053,215.551361 
	C52.944088,283.537231 52.996391,351.523163 52.921459,419.508942 
	C52.899170,439.733582 58.446407,458.239410 69.584686,475.880035 
z"/>
<path fill="#355DFB" opacity="1.000000" stroke="none" 
	d="
M225.847183,512.000000 
	C225.847137,488.536011 225.847137,465.572021 225.847137,442.065460 
	C238.121719,442.065460 250.014191,442.065460 262.791992,442.065460 
	C259.104126,432.855835 255.747574,424.407257 252.340759,415.979004 
	C244.044510,395.454590 235.672150,374.960602 227.481949,354.394012 
	C226.466599,351.844330 225.916458,348.929382 225.913345,346.182831 
	C225.830338,272.693329 225.802887,199.203674 225.865555,125.714134 
	C225.898331,87.290031 253.030899,48.328358 289.120544,35.346436 
	C313.849579,26.451063 338.801239,18.174417 363.661041,9.643402 
	C364.878571,9.225590 366.169373,9.021264 368.201202,8.530184 
	C368.201202,10.806612 368.201202,12.568991 368.201202,14.331369 
	C368.201233,68.823647 368.224487,123.315971 368.133087,177.808105 
	C368.128510,180.551178 367.550049,183.458679 366.534637,186.009293 
	C355.390991,214.000595 344.105682,241.935486 332.865723,269.888458 
	C332.193604,271.560028 331.579956,273.255035 330.645264,275.711304 
	C343.360474,275.711304 355.526917,275.711304 368.261230,275.711304 
	C368.261230,278.151276 368.261230,279.930542 368.261230,281.709839 
	C368.261230,371.030518 368.282196,460.351196 368.252014,549.671875 
	C368.237885,591.463501 341.411194,629.472839 301.943695,643.413940 
	C278.264526,651.778137 254.471191,659.819214 230.723770,667.989929 
	C229.350204,668.462524 227.928253,668.794617 225.847229,669.385681 
	C225.847229,616.708557 225.847229,564.604248 225.847183,512.000000 
z"/>
<path fill="#0101DE" opacity="1.000000" stroke="none" 
	d="
M432.653900,269.397461 
	C421.409149,241.774933 410.248383,214.535233 399.289459,187.214539 
	C398.029297,184.072876 397.344482,180.482895 397.325073,177.095428 
	C397.169434,149.939896 397.238068,122.783058 397.238068,94.761124 
	C399.644196,95.550529 401.602386,96.167061 403.543396,96.833733 
	C427.116211,104.930244 450.919220,112.422134 474.203827,121.277054 
	C510.721161,135.164291 531.903076,162.214050 538.750793,200.510559 
	C539.740601,206.046387 539.943848,211.781815 539.950439,217.425522 
	C540.028992,284.422913 540.003601,351.420410 540.000183,418.417877 
	C539.997803,464.008331 513.743469,501.014038 470.621185,516.055847 
	C446.491913,524.472534 422.311340,532.742126 397.663055,541.247314 
	C397.663055,452.704773 397.663055,364.685516 397.663055,276.204132 
	C409.829468,276.204132 422.075409,276.204132 435.193634,276.204132 
	C434.227112,273.602844 433.512482,271.679504 432.653900,269.397461 
z"/>
<path fill="#60AAFB" opacity="1.000000" stroke="none" 
	d="
M69.376022,475.583313 
	C58.446407,458.239410 52.899170,439.733582 52.921459,419.508942 
	C52.996391,351.523163 52.944088,283.537231 52.952053,215.551361 
	C52.957142,172.101395 79.705635,134.428650 120.666328,120.272224 
	C143.623108,112.338135 166.618439,104.515572 189.600281,96.654083 
	C191.145615,96.125465 192.723709,95.692650 194.945816,95.013916 
	C195.047226,97.174026 195.199448,98.909805 195.200043,100.645630 
	C195.227951,181.961929 195.317535,263.278442 195.079971,344.593994 
	C195.065125,349.675964 192.949265,354.939850 191.005356,359.796692 
	C180.676590,385.602997 170.085312,411.304199 159.608597,437.051453 
	C159.062073,438.394562 158.732697,439.826080 158.128632,441.777222 
	C170.538437,441.777222 182.459991,441.777222 194.815292,441.777222 
	C194.815292,474.769501 194.815292,507.284088 194.815292,540.576965 
	C189.468765,538.880981 184.574066,537.434448 179.750763,535.779724 
	C160.084625,529.032898 140.456177,522.176086 120.783714,515.447876 
	C99.207329,508.068542 82.265015,494.744568 69.376022,475.583313 
z"/>
</svg>